<?xml version="1.0" encoding="UTF-8"?><svg xmlns="http://www.w3.org/2000/svg" viewBox="0 0 748.67 768"><defs><style>.cls-1{fill:#636a55;}.cls-1,.cls-2,.cls-3,.cls-4{stroke-width:0px;}.cls-2,.cls-5{fill:none;}.cls-5{stroke:#636a55;stroke-miterlimit:10;stroke-width:15px;}.cls-3{fill:#fff;}.cls-4{fill:#b2b3b2;}</style></defs><g id="_תמונה"><path class="cls-1" d="M550.55,460.49c-77.36,6.82-148.83,32.78-218.61,67.82,4.49-24.91,3.51-48.33-9.41-70.21-8.49,2.44-16.97,4.85-25.78,5.45-15.08,1.02-28.88-1.7-38.93-14.38-3.96-4.99-6.49-10.91-6.17-17.05.67-12.99-3.53-24.91-6.58-37.11-3.22-12.87-6.61-25.7-7.77-38.97-.14-1.6-.55-2.71-2.23-3.44-15.61-6.77-21.38-19.47-21.24-35.65.06-7.5-.16-15.01.35-22.48q.43-6.36-5.21-7.14c-5.23-.73-10.36-2.33-15.58-4.65,2.7-10.27,4.77-13.38,6.99-25.68,2.07-13.14,1.93-20.76,3.62-31.17,4.57-28.18,15.35-53.35,33.01-75.86,26.75-34.1,61.6-54.25,104.15-60.66,42.07-6.34,81.67,1.68,117.04,25.55,34.87,23.53,57.46,56.23,67.11,97.45,2.47,10.54,3.95,21.23,3.7,32.11-.08,3.4,3.97,23.4,8.91,38.58-7.13,2-13.73,4.09-20.45,5.62-3.33.76-4.18,2.29-4.14,5.48.16,12.33.06,24.66.08,36.99.02,18.79-15.44,38.62-33.81,42.72-4.01.9-4.96,2.63-5.08,6.35-.68,20.13,4.13,38.54,16.63,54.6,7.08,9.11,16.55,14.7,27.41,18.2,10.44,3.36,21.22,5.2,32.02,7.53ZM384.24,392.94c5.35-2.18,8.32-7.02,12.15-10.89.34-.35.25-1.28.13-1.9-.68-3.73-1.37-7.47-2.17-11.17-.79-3.64-1.03-7.44-2.75-11.4-1.03,12.48-3.82,24.02-7.25,35.43-.41.21-.8.45-.56,1.01.03.06.35.09.39.03.25-.34.66-.7.06-1.1ZM399.44,478.12c8.25-4.67,15.41-10.87,23.12-16.3,15.16-10.68,29.78-22.09,44.36-33.47-1.89-4.11-3.68-8-5.46-11.88-1.18-6.73-3.94-13.06-4.55-20.5-2.6,2.25-4.75,3.83-6.57,5.74-14.25,14.97-27.36,30.84-37.14,49.16-3.73,6.99-8.17,13.64-10.79,21.2-1.18,1.82-2.37,3.64-3.55,5.46-.3.31-.73.72-.31,1.08.44.39.74-.04.89-.49ZM283.55,275.57c27.12-.69,54.14-2.5,80.98-6.61,2.82-.43,4.91-1.41,6.56-3.86,6.96-10.34,14.11-20.56,21.08-30.89,1.16-1.72,2.35-3.22,4.3-3.97,3.69-1.42,16.14-1.75,20.61-.49-11.7,3.42-13.67,14.67-19.65,22.63,2.24-.18,3.36-1.73,4.3-3.13,3.77-5.59,9.35-6.89,15.54-7.27,22.25-1.39,44.52-2.68,66.74-4.47,7.99-.65,13.43,2.35,17.63,8.69,3.6,5.43,6.21,11.34,8.79,17.29q1.22,2.82,3.59,8.43l4.92-1.46c-1.23-4.65-2.28-9.32-3.7-13.87-2.62-8.38-3.53-17.23-7-25.36-5.25-12.29-16.99-19.8-29.39-19.04-17.28,1.05-34.57,1.87-51.84,3.03-8.3.56-16.64.52-24.91,1.66-6.46.88-11.62,3.71-15.54,8.92-4.6,6.12-9.19,12.25-12.95,18.92-1.16,2.06-2.5,3.01-4.94,3.43-8.8,1.51-26.25,5.57-26.23,5.75,8.75-.61,17.5-1.23,26.37-1.85-2.83,6.76-4.15,8.29-7.99,8.85-22.07,3.22-44.24,5.51-66.54,5.98-39.29.98-66.84-1.76-81.47-3.95-.32,2.4,0,0-1.18,6.62,1.17.39,9.95,2.61,27.74,4.29,8.39.58,37.84,1.87,44.2,1.71ZM278.47,428.82c7.94.23,15.83,1.76,23.85.24,11.55-2.19,23.2-3.93,33.87-9.27,6.86-1.73,12.6-5.78,18.78-8.93,2.42-1.23,3.63-3.03,4.52-5.56,5.21-14.78,8.45-30.02,10.72-45.47.78-5.31,2.58-10.55,1.95-16.23-5.41,2.5-9.49,6.53-15.15,8.4-13.06,4.31-25.98,5.15-39.08,1.03-16.18-5.09-28.26-15.79-38.52-28.86-2.56-3.26-4.79-6.87-8.14-9.41-4.54-3.45-8.26-2.12-9.83,3.33-3.3,10.61-6.69,21.19-9.85,31.85-.89,3.01-2.16,5.95-2.34,9.16-.23,4.1.79,5.52,4.85,5.98,3.31.38,6.62-.02,9.91-.61,8.16-1.46,16.31-2.94,24.5-4.26,5.75-.92,8.21,1.13,8.92,7,.08.64.38,1.26.57,1.89-4.32,2.42-8.74,4.83-13.62,5.66-7.63,1.3-12.79,4-13.87,12.49-.05.43.13.23.74.7,1.08.28.95,1.39,1.95.52,1.35-.12,2.69-.25,4.04-.37.41.22.81.45,1.22.67,12.3-.22,22.64,5.66,33.4,10.5-3.87.69-7.62.92-11.34.64-8.12-.6-16.24-1.31-24.39-.9-7.11.35-7.15.46-8.35,7.92,8.57.03,17.1.25,25.72,2.01-1.51,3.89-3.65,6.57-6.29,8.9-4.92,1.22-9.64,3.26-14.7,3.92-3.39.45-4.62,2.49-4.88,5.8,3.74.43,7.29.83,10.84,1.24ZM436.18,364.16c-.23-.58-.24-.79-.36-.88-.51-.41-1.05-.78-1.57-1.17-10.67-7.82-15.96-18.36-15.95-31.58,0-11.16-.06-22.33.03-33.49.11-12.93,9.43-22.11,23.51-22.63-4.87,5.45-8.34,11.25-9.44,18.11-1.41,8.82-.69,16.72,1.42,19.63.12-1.16.32-2.47.38-3.79.59-12.57,6.41-22.47,15.71-30.53,3.7-3.21,8.02-5.29,12.96-5.92,12.72-1.6,21.72,4.34,28.74,14.22,2.95,4.15,4.88,8.84,6.44,13.71.27-1.09.38-2.1.26-3.07-2.8-21.63-19.39-40.55-43.17-38.83-13.91,1-26.7,3.34-35.75,15.37-6.08,8.08-11.56,16.29-11.57,26.91,0,9,.01,18,.05,26.99.03,6.59,1.44,12.85,4.54,18.69,5.1,9.62,12.94,15.61,23.79,18.26ZM423.73,387.27c-7.41,3.75-18.04,13.03-23.51,19.21,6.93-4.34,16.24-12.41,23.51-19.21Z"/><path class="cls-4" d="M336.19,419.79c3-5.34,7.11-9.95,9.6-15.65,5.36-12.27,8.04-25.24,10.45-38.3.14-.78.18-1.67-.74-2.6-5.17.55-10.51,1.72-15.95,1.66-25.09-.27-45.04-11.16-61.11-29.83-3.35-3.89-6.11-8.28-9.23-12.38-1.94-2.55-4.11-4.86-7.76-4.59,1.56-5.45,5.29-6.78,9.83-3.33,3.35,2.55,5.57,6.15,8.14,9.41,10.26,13.07,22.33,23.77,38.52,28.86,13.1,4.12,26.02,3.28,39.08-1.03,5.66-1.87,9.74-5.9,15.15-8.4.63,5.67-1.17,10.92-1.95,16.23-2.27,15.45-5.51,30.69-10.72,45.47-.89,2.52-2.1,4.32-4.52,5.56-6.18,3.15-11.92,7.2-18.78,8.93Z"/><path class="cls-4" d="M402.41,472.07c2.62-7.56,7.06-14.21,10.79-21.2,9.78-18.32,22.89-34.19,37.14-49.16,1.81-1.91,3.97-3.48,6.57-5.74.62,7.44,3.38,13.77,4.55,20.5-1.31,1.28-2.57,2.62-3.93,3.83-16.17,14.37-31.8,29.29-46.92,44.77-2.5,2.56-4.5,5.81-8.2,7Z"/><path class="cls-4" d="M298.01,369.12c.1,3.27-2.61,4.3-4.75,5.42-7.28,3.81-8.51,9.02-14.79,14.25-1.22,0-8.8,1.21-8.49-1.2,1.09-8.48,6.78-11.52,14.41-12.81,4.88-.83,9.3-3.24,13.62-5.66Z"/><path class="cls-4" d="M287.2,417.86c-1.03,3.78-4.13,5.9-6.74,8.41-.79.77-2.19,1.02-2,2.55-3.55-.41-7.1-.81-10.84-1.24.27-3.31,1.49-5.35,4.88-5.8,5.06-.67,9.77-2.7,14.7-3.92Z"/><path class="cls-4" d="M277.25,388.11c.63-.18,1,.11,1.22.67-.41-.22-.81-.45-1.22-.67Z"/><line class="cls-2" x1="287.22" y1="263.78" x2="297.67" y2="276.56"/><path class="cls-3" d="M366.3,286.78s-19.95,3.15-39.06,4.94c-20.14,1.89-41.94,2.65-41.94,2.65,0,0-.78,1.27,1.22,4.8,2.82,4.97,27.34,38.53,54.73,34.05,32.16-5.26,25.05-46.45,25.05-46.45Z"/><path class="cls-3" d="M502.11,199.75c-.25-.37-5.03-7.45-13.61-17.42-27.38-31.88-93.51-93.42-174.27-60.59-21.99,8.94-45.07,24.88-68.75,50.32.52-1.16,38.66-85.01,157.2-62.38,81.73,15.6,99.08,88.56,99.43,90.07Z"/><path class="cls-4" d="M488.5,182.33s-11.24,3.56-101.78-10.85c-90.54-14.4-72.49-49.74-72.49-49.74,80.76-32.83,146.89,28.71,174.27,60.59Z"/><path class="cls-3" d="M241.76,222.44l.78-23.57c.14-4.14,3.53-7.43,7.68-7.43h16.13c5.44,0,9.83,4.45,9.77,9.89l-.36,30.3,2.49-2.09c3.35-2.81,5.28-6.96,5.28-11.33v-23.04c0-6.51-5.33-11.76-11.84-11.67l-18.92.28c-7.11.1-12.85,5.83-12.96,12.94l-.38,22.85c-.02,1.4.97,2.61,2.34,2.86h0Z"/><circle class="cls-1" cx="466.29" cy="226.48" r="5.58"/><circle class="cls-1" cx="448.82" cy="227.56" r="5.58"/><circle class="cls-1" cx="431.62" cy="228.74" r="5.58"/><path class="cls-4" d="M366.88,292.65c-26.64,6.11-51.94,7.49-67.12,7.67-5.94.07-7.84,1.86-4.8,9.89-.27-.41-8.3-10.77-8.45-11.03-2-3.53-1.22-4.8-1.22-4.8,0,0,21.81-.77,41.95-2.65,19.11-1.8,39.06-4.95,39.06-4.95,0,0,.4,2.29.58,5.87Z"/></g><g id="Layer_4"><polygon class="cls-1" points="166.62 533.87 166.62 668.41 134.62 668.41 134.62 593.31 101.24 635.47 67.25 592.55 67.25 668.41 35.25 668.41 35.25 533.87 62 533.87 67.25 540.49 101.24 583.41 100.94 583.78 101.53 583.78 101.24 583.41 134.62 541.25 140.47 533.87 166.62 533.87"/><polygon class="cls-1" points="308.32 668.41 274.69 668.41 265.33 645.97 228.87 645.97 252.57 615.37 252.57 615.36 242.47 591.16 210.25 668.41 176.62 668.41 232.74 533.87 252.2 533.87 308.32 668.41"/><polygon class="cls-1" points="428.18 668.41 394.55 668.41 385.19 645.97 348.73 645.97 372.43 615.37 362.33 591.16 330.11 668.41 296.49 668.41 352.6 533.87 372.06 533.87 428.18 668.41"/><polygon class="cls-1" points="542.64 561.89 479.25 635.45 542.64 635.45 542.64 667.46 438.18 667.46 438.18 634.1 497.42 565.35 438.18 565.35 438.18 533.35 542.64 533.35 542.64 561.89"/><rect class="cls-1" x="557.64" y="533.87" width="32" height="134.54"/><polygon class="cls-1" points="719.68 533.87 719.68 668.41 700.44 668.41 636.64 592.95 636.64 668.41 604.64 668.41 604.64 533.87 628.59 533.87 687.68 603.76 687.68 533.87 719.68 533.87"/><line class="cls-5" x1="557.64" y1="497.59" x2="719.68" y2="497.59"/><line class="cls-5" x1="35.25" y1="497.59" x2="197.29" y2="497.59"/></g></svg>